<?xml version="1.0" standalone="no"?>
<!DOCTYPE svg PUBLIC "-//W3C//DTD SVG 1.1//EN" "http://www.w3.org/Graphics/SVG/1.1/DTD/svg11.dtd" >
<svg xmlns="http://www.w3.org/2000/svg" xmlns:xlink="http://www.w3.org/1999/xlink" version="1.1" viewBox="-10 0 268 256">
   <path fill="currentColor"
d="M65 113h-1q-1 15 1 30q30 -19 53 -39q2 -1 3 0q0 1 -1 3q-21 20 -55 43q-1 20 1 29q0 29 8 35q1 1 -3 5q-5 3 -6 -3l-2 -2q-2 -3 -3 -3q-6 -6 -3 -8q4 -2 5 -8q0 -3 -1 -13v-29q-8 5 -15 9q-6 4 -16 -3q-3 -1 -3 -2q1 -1 4 -1q6 2 14 -2q1 0 2 -1q6 -3 14 -8
q-2 -32 -1 -80q0 -3 -1 -4h-4q-6 1 -7 0q-2 -1 0 -7q0 -1 1 0q3 4 7 -1q-1 -1 5 -8q13 -11 25 -30q9 -12 0 -18q-4 -4 2 -2q3 3 6 5q5 4 7 5q6 4 0 9q-18 18 -39 37q-2 2 0 1q8 3 6 8q0 4 -2 10q-2 5 -2 8v4q-1 0 1 0q11 -3 20 -9q6 -4 14 -3q4 2 1 5q-15 8 -35 9q-2 0 -1 0
v28l2 -1q9 -2 17 -8q7 -4 17 -4q3 2 0 5q-19 9 -35 9zM156 21q3 -4 21 7q5 4 -2 7q-9 1 -13 26q-5 13 16 8q8 0 11 -6q1 -3 7 -3t12 4q2 2 2 3q-1 2 -3 2q-9 1 -28 13q-4 3 -4 1q1 -2 6 -7q2 -2 1 -2q0 -1 -3 -1q-23 6 -21 -12q1 -13 7 -33q-2 -5 -6 -3l-6 2q-12 5 -28 8
q-5 0 -1 -2q4 0 8 -3q2 -1 3 -2l2 -1q5 -2 11 -3q5 -1 8 -3zM123 41q11 5 8 7q-3 6 -3 10q-4 19 -8 31q-2 3 -3 4q-1 0 -2 -3q-1 -1 -2 -3q-2 -5 -2 -8q-2 -4 2 -1q6 5 8 -2q8 -27 2 -34q-3 -1 0 -1zM135 115l-6 4q36 -11 36 -16q3 -5 9 -1q4 5 13 6q3 1 4 4q-1 3 -4 3
q-8 2 -12 10q-4 7 -18 32q-4 6 -5 8q4 6 17 19q11 12 18 18q4 3 18 4q19 1 40 8q6 1 0 2q-13 -2 -21 -3q-9 -1 -17 0q-13 0 -20 -8q-3 -1 -7 -5q-21 -19 -31 -32q-24 29 -45 39q-7 2 -1 -2q23 -13 43 -40q-9 -11 -18 -18q-6 -4 -15 -2q-3 1 0 -2q7 -4 16 -5q5 0 5 4
q4 8 15 18q16 -24 22 -48q0 -2 -1 -3t-3 -1q-8 4 -15 6q-32 12 -36 16q-4 3 -5 -2q-1 -3 5 -5t17 -10q10 -7 2 2z" />
</svg>
