<?xml version="1.0" encoding="UTF-8" standalone="no"?>
<svg
   version="1.1"
   viewBox="-10 0 271 256"
   id="svg1465"
   xmlns="http://www.w3.org/2000/svg"
   xmlns:svg="http://www.w3.org/2000/svg">
  <defs
     id="defs1469" />
  <path
     fill="currentColor"
     d="M102 97q2 -5 10 -1q6 3 11 7q0 4 -3 7q-5 -2 -9 3q-6 6 -14 12q-3 2 -4 3q8 -2 20 -2q2 2 0 5q-18 0 -32 11q-9 9 -10 14q-2 4 0 5q3 0 7 -3q2 -2 2 -1q1 1 0 4q-5 6 -3 9q0 5 -1 7q16 -7 25 -21q4 -5 2 -12q-1 -3 4 -2q4 3 9 4q1 1 1 2q0 2 -1 2q-4 1 -8 7q-8 10 -23 19 q5 -1 16 -2q6 0 15 -2q3 1 -1 2q-32 7 -75 18q-9 2 -15 3q-6 0 -10 -1q-4 0 -5 -1q1 -1 5 -2q10 0 23 -3q26 -7 34 -10q-12 -14 -4 -23q7 -10 15 -18q5 -4 -2 -2q-3 1 -8 3q-2 1 -3 1q-5 2 -5 1q-1 -1 2 -6q-11 -8 -7 -22q1 -1 1 1q1 14 11 20q5 0 14 -4q5 -5 10 -11 q4 -3 10 -14q0 -1 -1 -2h-2q-21 6 -38 10q-4 1 0 -1q8 -3 19 -6q4 -1 11 -4q4 0 6 -3zM98 69q3 1 5 1q4 1 7 1q5 4 1 7q-5 2 -7 2q-7 1 -13 3q-8 4 -21 14q-4 3 -1 -1l13 -13q3 -2 -1 -1q-10 4 -23 5q-4 0 0 -2q5 -1 13 -4q7 -2 13 -4q5 -2 8 -6q0 -2 6 -2zM92 7q10 10 2 38 q1 0 3 -1q4 -2 11 -4l2 1q1 1 -1 2q-10 5 -17 7q-1 2 -2 7q-2 6 -2 7q-2 5 -3 5t-3 -3q-8 -4 -3 -12q-25 11 -38 24q-3 3 -4 2q-1 0 -2 -4q-1 -1 -1 -2q-1 -4 1 -6q11 -7 15 -29q1 -8 2 -1q0 10 -1 15q0 5 -1 9q2 -1 5 -2q17 -7 26 -11q10 -23 8 -38v-3q0 -1 1 -2q1 0 2 1z M142 27q5 2 13 10q0 3 -4 3q-7 -1 -15 4q-24 14 -41 17q-8 2 -1 -2q18 -6 31 -16q6 -5 9 -10q0 -1 1 -2q0 -4 2 -5q1 -1 5 1zM144 67q1 2 4 3l6 3q1 1 0 5q-1 5 -2 15v11q-4 62 -39 92q-4 2 -1 -2q38 -37 35 -106q-1 -3 -1 -6q-1 -10 -2 -13q-2 -1 0 -2zM189 46q12 7 14 9 q2 3 2 5q-1 2 -4 1q-14 -1 -16 15q-9 37 -2 83q6 38 46 49q6 1 8 0q2 -2 1 -5q-9 -23 -12 -33q0 -3 2 0q5 9 10 19q8 15 12 19q2 4 0 6t-8 1q-55 -10 -64 -55q-6 -53 2 -100q0 -4 -1 -5q0 -1 -3 0q-22 7 -31 5q-2 0 -2 -1q1 -1 4 -2q4 0 13 -3q5 -2 9 -3q5 -1 10 -5 q4 -4 10 0z"
     id="path1463"
     style="fill:none;stroke:#000000;stroke-opacity:1" />
  <path
     style="fill:none;stroke:#000000;stroke-width:1px;stroke-linecap:butt;stroke-linejoin:miter;stroke-opacity:1"
     d="M 83.630691,-6.9108367 93.66255,16.496836 88.089295,43.471392 80.063808,60.414089 87.420505,66.210274"
     id="path1865" />
  <path
     style="fill:none;stroke:#000000;stroke-width:1px;stroke-linecap:butt;stroke-linejoin:miter;stroke-opacity:1"
     d="M 52.420461,30.76437 40.159299,70.668879 62.675251,59.076507 110.82818,40.573299"
     id="path1867" />
  <path
     style="fill:none;stroke:#000000;stroke-width:1px;stroke-linecap:butt;stroke-linejoin:miter;stroke-opacity:1"
     d="M 129.77725,23.184743 154.29957,39.904509 137.5798,36.114695 93.43962,61.30581"
     id="path1869" />
  <path
     style="fill:none;stroke:#000000;stroke-width:1px;stroke-linecap:butt;stroke-linejoin:miter;stroke-opacity:1"
     d="M 54.872693,86.942785 94.10841,74.458692 107.70715,74.235762 90.09567,81.369529 68.917297,95.859993"
     id="path1871" />
  <path
     style="fill:none;stroke:#000000;stroke-width:1px;stroke-linecap:butt;stroke-linejoin:miter;stroke-opacity:1"
     d="m 61.114739,108.34409 -1.337581,12.70702 8.694278,12.70702 3.789814,1.33758"
     id="path1873" />
  <path
     style="fill:none;stroke:#000000;stroke-width:1px;stroke-linecap:butt;stroke-linejoin:miter;stroke-opacity:1"
     d="m 51.9746,114.14027 47.93,-13.37581 6.91083,-3.343955 12.26117,7.356695 -9.586,3.78982 -4.90447,4.90446 -16.273904,18.94907"
     id="path1875" />
  <path
     style="fill:none;stroke:#000000;stroke-width:1px;stroke-linecap:butt;stroke-linejoin:miter;stroke-opacity:1"
     d="m 64.235762,137.9938 20.73251,-5.57325 31.210228,-3.78981"
     id="path1877" />
  <path
     style="fill:none;stroke:#000000;stroke-width:1px;stroke-linecap:butt;stroke-linejoin:miter;stroke-opacity:1"
     d="m 89.426877,133.08934 -16.273906,18.28028 -6.019116,12.48409 6.019116,9.586 3.789814,-13.37581"
     id="path1879" />
  <path
     style="fill:none;stroke:#000000;stroke-width:1px;stroke-linecap:butt;stroke-linejoin:miter;stroke-opacity:1"
     d="m 104.58613,144.68171 7.3567,3.78981 -8.02549,3.12103 -16.942696,23.6306"
     id="path1881" />
  <path
     style="fill:none;stroke:#000000;stroke-width:1px;stroke-linecap:butt;stroke-linejoin:miter;stroke-opacity:1"
     d="M 16.751626,194.17222 118.63074,172.32506"
     id="path1883" />
  <path
     style="fill:none;stroke:#000000;stroke-width:1px;stroke-linecap:butt;stroke-linejoin:miter;stroke-opacity:1"
     d="m 140.4779,68.662507 11.59237,5.573255 -3.12103,4.235674 -0.22293,31.433164 -4.68153,35.00004 -10.25479,22.96181 -12.92995,19.84079 -10.03186,9.36307"
     id="path1885" />
  <path
     style="fill:none;stroke:#000000;stroke-width:1px;stroke-linecap:butt;stroke-linejoin:miter;stroke-opacity:1"
     d="m 139.80911,60.637019 45.47776,-10.25479 20.50958,9.80893 -18.94907,-1.114652 -6.24204,17.388557 -4.01275,54.617906 6.01912,36.56055 22.51595,32.77074 23.85353,8.24842 16.9427,2.67517 -21.84716,-47.26121"
     id="path1887" />
</svg>
